<?xml version="1.0" standalone="no"?>
<!DOCTYPE svg PUBLIC "-//W3C//DTD SVG 20010904//EN"
 "http://www.w3.org/TR/2001/REC-SVG-20010904/DTD/svg10.dtd">
<svg version="1.0" xmlns="http://www.w3.org/2000/svg"
 width="1024.000000pt" height="1024.000000pt" viewBox="0 0 1024.000000 1024.000000"
 preserveAspectRatio="xMidYMid meet">

<g transform="translate(0.000000,1024.000000) scale(0.100000,-0.100000)"
fill="#000000" stroke="none">
<path d="M4875 10233 c-502 -29 -897 -103 -1332 -249 -1096 -367 -2032 -1082
-2678 -2049 -151 -225 -240 -380 -359 -627 -576 -1186 -664 -2519 -246 -3768
84 -254 137 -384 251 -618 257 -533 581 -985 1008 -1412 444 -443 895 -761
1448 -1023 378 -179 814 -322 1203 -396 329 -63 578 -85 950 -85 320 0 454 9
725 49 867 130 1714 498 2412 1050 348 275 687 621 955 977 366 486 658 1066
823 1633 99 341 154 629 187 980 17 181 16 688 -1 870 -60 648 -227 1231 -517
1815 -297 596 -711 1133 -1214 1576 -770 678 -1742 1118 -2750 1244 -266 34
-628 48 -865 33z m510 -893 c821 -55 1597 -346 2270 -850 898 -673 1503 -1696
1654 -2796 88 -634 31 -1252 -169 -1854 -334 -1006 -977 -1811 -1881 -2356
-509 -308 -1082 -501 -1704 -576 -146 -17 -732 -18 -875 0 -524 63 -938 182
-1395 401 -681 327 -1280 853 -1698 1492 -360 550 -585 1161 -674 1834 -22
168 -25 761 -5 930 48 396 122 697 259 1055 344 897 962 1638 1768 2119 756
452 1597 658 2450 601z"/>
<path d="M4329 7243 c-30 -35 -1569 -1647 -1881 -1971 -76 -78 -138 -149 -138
-158 0 -8 462 -498 1028 -1089 l1027 -1075 743 0 c408 0 742 2 742 4 0 3 -349
362 -775 798 -426 436 -775 796 -775 800 0 5 767 8 1705 8 l1705 0 0 555 0
555 -1709 2 -1709 3 395 405 c441 452 706 722 988 1008 l190 192 -752 0 -751
0 -33 -37z"/>
</g>
</svg>
