<?xml version="1.0" standalone="no"?>
<!DOCTYPE svg PUBLIC "-//W3C//DTD SVG 20010904//EN"
 "http://www.w3.org/TR/2001/REC-SVG-20010904/DTD/svg10.dtd">
<svg version="1.0" xmlns="http://www.w3.org/2000/svg"
 width="225.000000pt" height="225.000000pt" viewBox="0 0 225.000000 225.000000"
 preserveAspectRatio="xMidYMid meet">

<g transform="translate(0.000000,225.000000) scale(0.100000,-0.100000)"
fill="#000000" stroke="none">
<path d="M980 2239 c-111 -13 -242 -53 -355 -109 -220 -109 -396 -286 -505
-505 -177 -357 -153 -782 63 -1112 270 -414 781 -604 1255 -467 499 145 844
633 807 1144 -21 301 -133 540 -350 749 -246 236 -563 340 -915 300z m315
-180 c358 -60 659 -343 751 -704 43 -170 33 -379 -24 -545 -108 -311 -387
-553 -712 -617 -90 -17 -276 -19 -357 -3 -391 77 -686 372 -763 763 -15 77
-16 267 -1 342 40 199 127 363 266 501 226 224 521 317 840 263z"/>
<path d="M543 1365 c-32 -32 -35 -39 -30 -77 5 -38 25 -61 274 -310 147 -148
280 -276 295 -284 66 -35 71 -32 329 218 343 331 345 334 327 406 -9 35 -57
72 -93 72 -35 0 -76 -34 -300 -249 l-219 -211 -236 235 c-225 224 -238 235
-274 235 -30 0 -45 -7 -73 -35z"/>
</g>
</svg>
